<svg width="766" height="448" viewBox="0 0 766 448" fill="none" xmlns="http://www.w3.org/2000/svg">
<g filter="url(#filter0_ddd_6225_34264)">
<rect x="3" y="2" width="760" height="442" rx="8" fill="white"/>
<rect x="3" y="2" width="702" height="440" rx="8" fill="white"/>
</g>
<rect x="3" y="27.0566" width="760" height="75.1701" fill="#F8FAFB"/>
<rect x="20.322" y="57.1245" width="154.815" height="15.034" fill="#F0F0F0"/>
<rect x="220.606" y="57.1245" width="43.3048" height="15.034" fill="#F0F0F0"/>
<rect x="309.382" y="57.1245" width="96.3533" height="15.034" fill="#F0F0F0"/>
<rect x="679.638" y="57.1245" width="62.792" height="15.034" fill="#F0F0F0"/>
<rect x="593.028" y="57.1245" width="16.2393" height="15.034" fill="#F0F0F0"/>
<rect x="617.928" y="57.1245" width="16.2393" height="15.034" fill="#F0F0F0"/>
<rect x="451.205" y="37.0796" width="96.3533" height="56.127" fill="#F0F0F0"/>
<rect x="20.322" y="135.302" width="154.815" height="15.034" fill="#F8FAFB"/>
<rect x="220.606" y="135.302" width="43.3048" height="15.034" fill="#F8FAFB"/>
<rect x="309.382" y="135.302" width="96.3533" height="15.034" fill="#F8FAFB"/>
<rect x="679.638" y="135.302" width="62.792" height="15.034" fill="#F8FAFB"/>
<rect x="593.028" y="135.302" width="16.2393" height="15.034" fill="#F8FAFB"/>
<rect x="617.928" y="135.302" width="16.2393" height="15.034" fill="#F8FAFB"/>
<rect x="451.205" y="115.256" width="96.3533" height="56.127" fill="#F8FAFB"/>
<rect x="3" y="184.413" width="760" height="75.1701" fill="#F8FAFB"/>
<rect x="3" y="341.769" width="760" height="75.1701" fill="#F8FAFB"/>
<rect x="20.322" y="215.483" width="154.815" height="15.034" fill="#F0F0F0"/>
<rect x="220.606" y="215.483" width="43.3048" height="15.034" fill="#F0F0F0"/>
<rect x="309.382" y="215.483" width="96.3533" height="15.034" fill="#F0F0F0"/>
<rect x="679.638" y="215.483" width="62.792" height="15.034" fill="#F0F0F0"/>
<rect x="593.028" y="215.483" width="16.2393" height="15.034" fill="#F0F0F0"/>
<rect x="617.928" y="215.483" width="16.2393" height="15.034" fill="#F0F0F0"/>
<rect x="451.205" y="195.438" width="96.3533" height="56.127" fill="#F0F0F0"/>
<rect x="20.322" y="292.658" width="154.815" height="15.034" fill="#F8FAFB"/>
<rect x="220.606" y="292.658" width="43.3048" height="15.034" fill="#F8FAFB"/>
<rect x="309.382" y="292.658" width="96.3533" height="15.034" fill="#F8FAFB"/>
<rect x="679.638" y="292.658" width="62.792" height="15.034" fill="#F8FAFB"/>
<rect x="593.028" y="292.658" width="16.2393" height="15.034" fill="#F8FAFB"/>
<rect x="617.928" y="292.658" width="16.2393" height="15.034" fill="#F8FAFB"/>
<rect x="451.205" y="272.612" width="96.3533" height="56.127" fill="#F8FAFB"/>
<rect x="20.322" y="371.837" width="154.815" height="15.034" fill="#F0F0F0"/>
<rect x="220.606" y="371.837" width="43.3048" height="15.034" fill="#F0F0F0"/>
<rect x="309.382" y="371.837" width="96.3533" height="15.034" fill="#F0F0F0"/>
<rect x="679.638" y="371.837" width="62.792" height="15.034" fill="#F0F0F0"/>
<rect x="593.028" y="371.837" width="16.2393" height="15.034" fill="#F0F0F0"/>
<rect x="617.928" y="371.837" width="16.2393" height="15.034" fill="#F0F0F0"/>
<rect x="451.205" y="351.792" width="96.3533" height="56.127" fill="#F0F0F0"/>
<path d="M3 86.1904H763V436C763 440.418 759.418 444 755 444H11C6.58171 444 3 440.418 3 436V86.1904Z" fill="url(#paint0_linear_6225_34264)"/>
<defs>
<filter id="filter0_ddd_6225_34264" x="0" y="0" width="766" height="448" filterUnits="userSpaceOnUse" color-interpolation-filters="sRGB">
<feFlood flood-opacity="0" result="BackgroundImageFix"/>
<feColorMatrix in="SourceAlpha" type="matrix" values="0 0 0 0 0 0 0 0 0 0 0 0 0 0 0 0 0 0 127 0" result="hardAlpha"/>
<feMorphology radius="1" operator="erode" in="SourceAlpha" result="effect1_dropShadow_6225_34264"/>
<feOffset dy="2"/>
<feGaussianBlur stdDeviation="0.5"/>
<feComposite in2="hardAlpha" operator="out"/>
<feColorMatrix type="matrix" values="0 0 0 0 0 0 0 0 0 0 0 0 0 0 0 0 0 0 0.2 0"/>
<feBlend mode="normal" in2="BackgroundImageFix" result="effect1_dropShadow_6225_34264"/>
<feColorMatrix in="SourceAlpha" type="matrix" values="0 0 0 0 0 0 0 0 0 0 0 0 0 0 0 0 0 0 127 0" result="hardAlpha"/>
<feOffset dy="1"/>
<feGaussianBlur stdDeviation="0.5"/>
<feComposite in2="hardAlpha" operator="out"/>
<feColorMatrix type="matrix" values="0 0 0 0 0 0 0 0 0 0 0 0 0 0 0 0 0 0 0.14 0"/>
<feBlend mode="normal" in2="effect1_dropShadow_6225_34264" result="effect2_dropShadow_6225_34264"/>
<feColorMatrix in="SourceAlpha" type="matrix" values="0 0 0 0 0 0 0 0 0 0 0 0 0 0 0 0 0 0 127 0" result="hardAlpha"/>
<feOffset dy="1"/>
<feGaussianBlur stdDeviation="1.5"/>
<feComposite in2="hardAlpha" operator="out"/>
<feColorMatrix type="matrix" values="0 0 0 0 0 0 0 0 0 0 0 0 0 0 0 0 0 0 0.12 0"/>
<feBlend mode="normal" in2="effect2_dropShadow_6225_34264" result="effect3_dropShadow_6225_34264"/>
<feBlend mode="normal" in="SourceGraphic" in2="effect3_dropShadow_6225_34264" result="shape"/>
</filter>
<linearGradient id="paint0_linear_6225_34264" x1="382.565" y1="444" x2="382.565" y2="86.1905" gradientUnits="userSpaceOnUse">
<stop stop-color="white"/>
<stop offset="0.691947" stop-color="white" stop-opacity="0.308053"/>
<stop offset="1" stop-color="white" stop-opacity="0"/>
</linearGradient>
</defs>
</svg>
